<svg width="33" height="32" viewBox="0 0 33 32" fill="none" xmlns="http://www.w3.org/2000/svg">
<g clip-path="url(#clip0_1787_84389)" filter="url(#filter0_d_1787_84389)">
<path d="M28.5 12C28.5 5.37258 23.1274 0 16.5 0C9.87258 0 4.5 5.37258 4.5 12C4.5 17.9895 8.8882 22.954 14.625 23.8542V15.4688H11.5781V12H14.625V9.35625C14.625 6.34875 16.4166 4.6875 19.1576 4.6875C20.4701 4.6875 21.8438 4.92188 21.8438 4.92188V7.875H20.3306C18.84 7.875 18.375 8.80008 18.375 9.75V12H21.7031L21.1711 15.4688H18.375V23.8542C24.1118 22.954 28.5 17.9895 28.5 12Z" fill="#1877F2"/>
<path d="M21.1711 15.4688L21.7031 12H18.375V9.75C18.375 8.80102 18.84 7.875 20.3306 7.875H21.8438V4.92188C21.8438 4.92188 20.4705 4.6875 19.1576 4.6875C16.4166 4.6875 14.625 6.34875 14.625 9.35625V12H11.5781V15.4688H14.625V23.8542C15.8674 24.0486 17.1326 24.0486 18.375 23.8542V15.4688H21.1711Z" fill="white"/>
</g>
<defs>
<filter id="filter0_d_1787_84389" x="0.5" y="0" width="32" height="32" filterUnits="userSpaceOnUse" color-interpolation-filters="sRGB">
<feFlood flood-opacity="0" result="BackgroundImageFix"/>
<feColorMatrix in="SourceAlpha" type="matrix" values="0 0 0 0 0 0 0 0 0 0 0 0 0 0 0 0 0 0 127 0" result="hardAlpha"/>
<feOffset dy="4"/>
<feGaussianBlur stdDeviation="2"/>
<feComposite in2="hardAlpha" operator="out"/>
<feColorMatrix type="matrix" values="0 0 0 0 0 0 0 0 0 0 0 0 0 0 0 0 0 0 0.25 0"/>
<feBlend mode="normal" in2="BackgroundImageFix" result="effect1_dropShadow_1787_84389"/>
<feBlend mode="normal" in="SourceGraphic" in2="effect1_dropShadow_1787_84389" result="shape"/>
</filter>
<clipPath id="clip0_1787_84389">
<rect width="24" height="24" fill="white" transform="translate(4.5)"/>
</clipPath>
</defs>
</svg>
