<svg width="26" height="27" viewBox="0 0 26 27" fill="none" xmlns="http://www.w3.org/2000/svg">
<path d="M7.61602 0.725685C6.2328 0.790946 5.28821 1.01169 4.46245 1.33617C3.60782 1.66924 2.88345 2.11618 2.16272 2.83951C1.442 3.56283 0.998171 4.28772 0.667448 5.14365C0.347385 5.97124 0.130542 6.91661 0.0694418 8.3006C0.00834117 9.6846 -0.00517897 10.1295 0.0015811 13.6598C0.00834116 17.1901 0.0239413 17.6326 0.091022 19.0195C0.157063 20.4024 0.377025 21.3468 0.701508 22.1728C1.03509 23.0274 1.48152 23.7515 2.2051 24.4725C2.92869 25.1935 3.65306 25.6363 4.51107 25.9675C5.33787 26.2871 6.28351 26.5049 7.66724 26.5655C9.05097 26.6261 9.49636 26.6401 13.0256 26.6334C16.5549 26.6266 16.9993 26.611 18.3858 26.5452C19.7724 26.4795 20.7118 26.2579 21.5381 25.935C22.3927 25.6007 23.1174 25.155 23.8378 24.4312C24.5583 23.7073 25.0019 22.9819 25.3323 22.1255C25.6527 21.2987 25.8703 20.353 25.9303 18.9703C25.9909 17.5827 26.0052 17.1397 25.9985 13.6099C25.9917 10.0801 25.9758 9.63754 25.9101 8.2512C25.8443 6.86487 25.6241 5.9234 25.2998 5.09685C24.9657 4.24222 24.5198 3.51863 23.7965 2.79713C23.0732 2.07562 22.3472 1.63231 21.4911 1.30263C20.6637 0.982568 19.7186 0.764426 18.3349 0.704625C16.9512 0.644825 16.5058 0.629484 12.9752 0.636245C9.44462 0.643005 9.00261 0.658085 7.61602 0.725685ZM7.76786 24.2268C6.50035 24.1717 5.81212 23.9611 5.35347 23.7848C4.74611 23.5508 4.31346 23.2679 3.85638 22.8153C3.3993 22.3626 3.11849 21.9284 2.88137 21.3223C2.70327 20.8637 2.48877 20.1762 2.42949 18.9087C2.365 17.5388 2.35148 17.1274 2.34394 13.6567C2.3364 10.1859 2.34966 9.77508 2.40973 8.4046C2.46381 7.13813 2.67571 6.44912 2.85173 5.99074C3.08573 5.38259 3.36757 4.95073 3.82128 4.4939C4.27498 4.03708 4.70789 3.75576 5.31447 3.51863C5.7726 3.33975 6.46005 3.12707 7.72704 3.06675C9.09803 3.00175 9.50884 2.98875 12.9791 2.98121C16.4493 2.97367 16.8612 2.98667 18.2327 3.04699C19.4992 3.10211 20.1884 3.31193 20.6463 3.48899C21.2539 3.723 21.6863 4.00406 22.1431 4.45854C22.6 4.91303 22.8816 5.34437 23.1187 5.95226C23.2978 6.40908 23.5105 7.09627 23.5703 8.36404C23.6356 9.73504 23.6504 10.1461 23.6566 13.6161C23.6629 17.0861 23.6506 17.4982 23.5906 18.8682C23.5352 20.1357 23.3251 20.8242 23.1486 21.2833C22.9146 21.8904 22.6325 22.3233 22.1785 22.7799C21.7245 23.2365 21.2922 23.5178 20.6853 23.7549C20.2277 23.9335 19.5395 24.1467 18.2735 24.207C16.9025 24.2715 16.4917 24.285 13.0202 24.2926C9.54862 24.3001 9.13911 24.2861 7.76812 24.2268M18.3658 6.68677C18.3663 6.99533 18.4584 7.29681 18.6302 7.55308C18.8021 7.80935 19.0461 8.00889 19.3314 8.12647C19.6167 8.24406 19.9304 8.2744 20.2329 8.21366C20.5355 8.15292 20.8132 8.00382 21.031 7.78524C21.2487 7.56665 21.3968 7.28839 21.4564 6.98564C21.5161 6.68289 21.4846 6.36926 21.366 6.08441C21.2473 5.79956 21.0469 5.55629 20.79 5.38536C20.5331 5.21444 20.2313 5.12353 19.9227 5.12415C19.5091 5.12498 19.1127 5.29006 18.8207 5.58309C18.5288 5.87612 18.3651 6.27311 18.3658 6.68677ZM6.3251 13.6478C6.33238 17.3347 9.32658 20.3166 13.0126 20.3096C16.6987 20.3026 19.6827 17.3087 19.6757 13.6218C19.6687 9.93498 16.6737 6.95223 12.9872 6.95951C9.30058 6.96679 6.31808 9.9615 6.3251 13.6478ZM8.66669 13.6431C8.66499 12.7861 8.91749 11.9477 9.39224 11.2342C9.867 10.5206 10.5427 9.96381 11.3339 9.63426C12.1251 9.3047 12.9962 9.21716 13.8371 9.3827C14.6781 9.54825 15.451 9.95944 16.0583 10.5643C16.6655 11.1691 17.0798 11.9405 17.2487 12.7807C17.4175 13.621 17.3334 14.4925 17.007 15.285C16.6806 16.0775 16.1265 16.7554 15.4148 17.2329C14.7031 17.7105 13.8658 17.9663 13.0087 17.968C12.4396 17.9692 11.8759 17.8583 11.3497 17.6416C10.8234 17.4249 10.3451 17.1066 9.94184 16.705C9.53863 16.3034 9.21849 15.8263 8.9997 15.3009C8.7809 14.7756 8.66775 14.2122 8.66669 13.6431Z" fill="#0C837E"/>
</svg>
