<svg xmlns="http://www.w3.org/2000/svg" width="20" height="25" viewBox="0 0 20 25" fill="none">
  <path d="M19 7.125V18.375C19 22.875 17.875 24 13.375 24H6.625C2.125 24 1 22.875 1 18.375V7.125C1 2.625 2.125 1.5 6.625 1.5H13.375C17.875 1.5 19 2.625 19 7.125Z" stroke="#0C837E" stroke-width="1.5" stroke-linecap="round" stroke-linejoin="round"/>
  <path opacity="0.4" d="M12.25 5.4375H7.75" stroke="#0C837E" stroke-width="1.5" stroke-linecap="round" stroke-linejoin="round"/>
  <path opacity="0.4" d="M10 20.7375C10.963 20.7375 11.7437 19.9568 11.7437 18.9937C11.7437 18.0307 10.963 17.25 10 17.25C9.03695 17.25 8.25625 18.0307 8.25625 18.9937C8.25625 19.9568 9.03695 20.7375 10 20.7375Z" stroke="#0C837E" stroke-width="1.5" stroke-linecap="round" stroke-linejoin="round"/>
</svg>