<svg width="26" height="31" viewBox="0 0 26 31" fill="none" xmlns="http://www.w3.org/2000/svg">
<path d="M22.1165 6.71637C20.5101 5.6709 19.3517 3.99742 18.9898 2.04764C18.912 1.62646 18.8686 1.1926 18.8686 0.749023H13.743L13.7347 21.261C13.6487 23.558 11.7552 25.4017 9.43469 25.4017C8.71303 25.4017 8.034 25.2218 7.43573 24.9074C6.0642 24.1868 5.12566 22.7515 5.12566 21.0997C5.12566 18.7272 7.05882 16.7968 9.43395 16.7968C9.87741 16.7968 10.3029 16.87 10.7053 16.9955V11.7704C10.2887 11.7137 9.86545 11.6786 9.43395 11.6786C4.232 11.6786 0 15.9045 0 21.0997C0 24.2868 1.59439 27.1073 4.02784 28.8129C5.56016 29.8875 7.42451 30.52 9.43469 30.52C14.6366 30.52 18.8686 26.2941 18.8686 21.0997V10.6981C20.8788 12.1386 23.3422 12.9876 26 12.9876V7.86936C24.5686 7.86936 23.2352 7.44445 22.1165 6.71637Z" fill="#0C837E"/>
</svg>
