<svg width="28" height="24" viewBox="0 0 28 24" fill="none" xmlns="http://www.w3.org/2000/svg">
<path d="M25.1335 5.91131C25.1505 6.15863 25.1505 6.40595 25.1505 6.65555C25.1505 14.2609 19.3719 23.0322 8.80553 23.0322V23.0277C5.68418 23.0322 2.62767 22.1364 0 20.4473C0.45387 20.5021 0.910014 20.5294 1.3673 20.5305C3.95401 20.5328 6.46679 19.6632 8.50181 18.0619C6.04363 18.0152 3.88804 16.4093 3.135 14.0649C3.9961 14.2313 4.88336 14.1971 5.72854 13.9657C3.04855 13.4232 1.12046 11.064 1.12046 8.32411C1.12046 8.29903 1.12046 8.2751 1.12046 8.25117C1.91899 8.6968 2.81308 8.94412 3.72765 8.97147C1.20349 7.28126 0.425432 3.9168 1.94971 1.28631C4.8663 4.88214 9.16953 7.06813 13.789 7.2995C13.326 5.30042 13.9585 3.20561 15.4509 1.80033C17.7646 -0.378824 21.4035 -0.267131 23.5785 2.04993C24.865 1.79577 26.0981 1.32278 27.2265 0.652626C26.7976 1.98496 25.9001 3.11671 24.7012 3.83588C25.8399 3.70139 26.9523 3.39594 28 2.92979C27.2288 4.08775 26.2573 5.09641 25.1335 5.91131Z" fill="#0C837E"/>
</svg>
