<svg width="500" height="500" viewBox="0 0 500 500" fill="none" xmlns="http://www.w3.org/2000/svg">
<path d="M437.51 135.46C437.497 135.331 437.497 135.2 437.51 135.07C437.51 134.79 437.51 134.41 437.51 133.93C437.51 133.67 437.51 133.39 437.51 133.09C437.51 132.78 437.51 132.44 437.51 132.09C437.49 131.249 437.41 130.41 437.27 129.58C436.937 127.293 436.263 125.068 435.27 122.98C433.984 120.212 432.182 117.714 429.96 115.62C427.072 112.888 423.544 110.926 419.7 109.914C415.855 108.903 411.818 108.874 407.96 109.83C406.861 110.088 405.782 110.422 404.73 110.83C403.662 111.274 402.626 111.792 401.63 112.38C399.557 113.562 397.69 115.071 396.1 116.85C394.422 118.667 393.044 120.74 392.02 122.99C389.878 127.65 389.313 132.881 390.41 137.89C390.927 140.308 391.828 142.628 393.08 144.76C393.681 145.802 394.349 146.804 395.08 147.76C395.833 148.669 396.644 149.528 397.51 150.33C398.353 151.117 399.252 151.842 400.2 152.5C401.137 153.13 402.116 153.695 403.13 154.19C406.945 156.064 411.191 156.885 415.43 156.57C419.122 156.299 422.699 155.162 425.87 153.25C428.493 151.682 430.791 149.625 432.64 147.19C434.047 145.37 435.169 143.347 435.97 141.19C436.286 140.411 436.544 139.608 436.74 138.79C436.84 138.43 436.94 138.11 437 137.79C437.06 137.47 437.11 137.21 437.15 136.96C437.24 136.49 437.3 136.12 437.36 135.84C437.372 135.711 437.399 135.584 437.44 135.46C437.453 135.59 437.453 135.721 437.44 135.85L437.28 136.98L437.16 137.82C437.1 138.12 437.01 138.45 436.92 138.82C436.736 139.65 436.492 140.466 436.19 141.26C435.417 143.458 434.307 145.523 432.9 147.38C430.849 150.13 428.237 152.413 425.237 154.076C422.238 155.74 418.918 156.747 415.5 157.03C411.193 157.347 406.88 156.516 403 154.62C401.964 154.116 400.962 153.545 400 152.91C399.034 152.233 398.115 151.491 397.25 150.69C396.362 149.874 395.53 148.998 394.76 148.07C394.009 147.116 393.321 146.114 392.7 145.07C391.419 142.898 390.494 140.535 389.96 138.07C388.834 132.953 389.413 127.607 391.61 122.85C392.654 120.547 394.065 118.43 395.79 116.58C396.619 115.676 397.508 114.827 398.45 114.04C399.407 113.312 400.409 112.644 401.45 112.04C403.456 110.844 405.635 109.964 407.91 109.43C412.119 108.41 416.525 108.534 420.67 109.79C423.951 110.793 426.981 112.483 429.557 114.749C432.133 117.015 434.197 119.804 435.61 122.93C436.585 125.05 437.229 127.306 437.52 129.62C437.645 130.458 437.709 131.303 437.71 132.15C437.71 132.52 437.71 132.86 437.71 133.15C437.71 133.44 437.71 133.74 437.65 133.99C437.61 134.47 437.58 134.85 437.56 135.13C437.554 135.242 437.537 135.352 437.51 135.46Z" fill="white"/>
<path d="M411.94 144.05L399.5 133.62L403.14 129.28L411.48 136.27L424.29 122.67L428.41 126.55L411.94 144.05Z" fill="white"/>
<path d="M273.293 446.736C373.433 431.555 442.306 338.07 427.125 237.93C411.945 137.79 318.459 68.9168 218.319 84.0973C118.179 99.2778 49.3062 192.763 64.4867 292.903C79.6672 393.043 173.153 461.916 273.293 446.736Z" fill="#F5F5F5"/>
<path d="M404.685 229.994L406.8 308.098L378.938 265.195L313.655 264.568L328.226 290.42C343.476 313.033 352.72 332.044 372.749 353.717C382.75 364.554 392.046 379.648 396.59 382.807C407.453 390.432 423.773 396.543 437.953 384.27C457.746 367.139 455.396 334.185 449.155 300.525C442.209 263.158 438.579 227.122 438.579 227.122L404.685 229.994Z" fill="#9B5D3A"/>
<path d="M412.413 182.731C412.413 182.731 406.381 171.11 401.602 172.285C396.824 173.46 390.374 177.508 389.59 181.503C388.807 185.499 389.851 188.919 391.653 188.763C394.166 187.88 396.547 186.659 398.73 185.133L404.84 193.724L402.229 204.587L395.883 207.851L392.228 200.278L393.716 191.687C393.716 191.687 389.381 188.031 386.979 194.899C384.577 201.767 381.756 214.118 388.702 220.098C395.068 225.18 401.73 229.88 408.653 234.173L439.988 231.562L447.483 194.769C447.483 194.769 459.703 182.026 460.513 176.803C461.322 171.58 462.001 155.913 462.001 155.913C461.539 155.534 460.993 155.272 460.408 155.147C459.824 155.022 459.218 155.038 458.642 155.194C458.065 155.349 457.533 155.64 457.091 156.042C456.649 156.444 456.309 156.946 456.1 157.506C453.932 161.892 451.843 174.636 451.843 174.636L441.424 184.637L445.524 139.592C445.524 139.592 439.257 135.518 436.698 145.65C434.139 155.782 431.319 180.798 430.039 180.798C428.76 180.798 424.973 180.798 425.522 175.576C426.07 170.353 424.373 130.191 424.373 130.191C424.373 130.191 415.338 132.176 415.912 140.637C416.487 149.097 416.121 175.654 415.912 177.665C415.703 179.675 412.413 182.731 412.413 182.731Z" fill="#9B5D3A"/>
<path d="M412.396 346.537C410.462 340.315 409.175 333.909 408.557 327.422C407.439 320.948 406.958 314.38 407.121 307.812C407.565 307.812 408.557 316.455 410.019 327.135C411.144 333.557 411.937 340.033 412.396 346.537Z" fill="#8B4A28"/>
<path d="M421.215 221.194C420.98 221.194 420.536 219.941 419.439 218.087C417.996 215.687 416.084 213.602 413.819 211.956C411.554 210.309 408.98 209.135 406.252 208.503C404.137 208.033 402.753 208.007 402.753 207.772C402.753 207.537 404.111 207.25 406.409 207.459C409.406 207.823 412.261 208.944 414.705 210.717C417.15 212.489 419.102 214.855 420.379 217.591C421.005 218.684 421.296 219.937 421.215 221.194Z" fill="#8B4A28"/>
<path d="M178.602 222.605L220.617 218.322L292.036 221.456L324.547 232.658L279.319 278.486L219.52 271.044L192.729 255.82L178.602 222.605Z" fill="#9B5D3A"/>
<path d="M272.951 44.5672C280.314 39.893 282.09 29.0561 278.173 21.3006C274.256 13.5451 265.717 8.84476 257.126 7.46077C250.868 6.5032 244.471 7.04288 238.461 9.03555C232.451 11.0282 227 14.4171 222.553 18.9243C217.8 23.8074 213.936 30.179 207.512 32.4247C201.845 34.4093 195.578 32.6336 189.624 33.3909C185.661 34.1138 181.909 35.7128 178.643 38.071C175.377 40.4293 172.678 43.4874 170.745 47.0218C166.947 54.1277 164.662 61.9427 164.034 69.975C163.172 77.3128 162.598 85.3556 157.506 90.6826C152.414 96.0096 144.736 97.0019 138.574 100.71C132.888 104.414 128.88 110.196 127.406 116.82C125.932 123.443 127.11 130.38 130.688 136.145C133.116 139.696 136.615 142.961 136.902 147.269C137.164 151.186 134.631 154.685 133.429 158.446C132.809 160.869 132.715 163.397 133.155 165.86C133.594 168.322 134.557 170.662 135.977 172.721C137.398 174.78 139.243 176.511 141.39 177.796C143.536 179.081 145.932 179.891 148.418 180.171C153.641 180.485 158.863 178.474 163.59 180.772C168.316 183.07 169.831 188.606 172.729 192.706C175.719 196.733 179.999 199.614 184.855 200.868C189.711 202.122 194.851 201.675 199.417 199.599C203.177 197.745 206.728 194.69 210.906 194.977C215.084 195.265 218.375 198.816 222.474 199.626C227.854 200.644 232.92 196.701 236.132 192.262C239.343 187.823 241.563 182.574 245.637 178.944C250.99 174.192 258.51 173.017 265.273 170.666C272.778 168.087 279.641 163.926 285.398 158.464C291.155 153.003 295.672 146.368 298.643 139.01C301.614 131.652 302.97 123.741 302.619 115.813C302.268 107.886 300.219 100.126 296.609 93.0588" fill="#263238"/>
<path d="M195.073 140.819C193.424 139.051 191.373 137.708 189.093 136.902H189.537C189.119 136.784 188.69 136.705 188.258 136.667C187.484 136.446 186.674 136.382 185.875 136.481C185.076 136.579 184.306 136.838 183.609 137.242C181.016 138.166 178.863 140.03 177.577 142.465C176.575 144.636 176.189 147.041 176.461 149.417C176.733 151.793 177.652 154.049 179.118 155.939C180.188 157.635 181.744 158.97 183.583 159.771C185.421 160.572 187.458 160.801 189.429 160.43C191.4 160.058 193.214 159.102 194.635 157.687C196.056 156.271 197.018 154.461 197.397 152.492C198.017 150.507 198.129 148.399 197.723 146.359C197.317 144.32 196.406 142.415 195.073 140.819Z" fill="#455A64"/>
<path d="M292.035 221.455L299.869 77.8345C300.023 74.8007 299.036 71.819 297.104 69.4755C295.171 67.132 292.431 65.5961 289.424 65.1698L225.238 46.8907C204.583 44.0967 190.09 69.2173 188.21 89.9509C186.095 113.009 184.424 141.237 186.669 158.523C191.056 193.462 219.467 198.737 219.467 198.737C219.467 198.737 219.676 234.172 219.467 246.759L240.828 293.005L292.035 221.455Z" fill="#9B5D3A"/>
<path d="M201.187 116.195C201.144 117.355 201.557 118.486 202.338 119.345C203.119 120.204 204.206 120.723 205.365 120.791C205.927 120.856 206.497 120.806 207.041 120.645C207.584 120.485 208.089 120.215 208.525 119.855C208.962 119.494 209.321 119.048 209.581 118.545C209.841 118.042 209.997 117.491 210.039 116.926C210.089 115.766 209.682 114.632 208.906 113.768C208.13 112.904 207.046 112.378 205.887 112.304C205.322 112.247 204.751 112.302 204.208 112.467C203.665 112.632 203.16 112.904 202.722 113.266C202.285 113.628 201.924 114.073 201.66 114.576C201.397 115.079 201.236 115.629 201.187 116.195Z" fill="#263238"/>
<path d="M193.954 102.616C194.477 103.216 197.924 100.814 202.702 100.97C207.481 101.127 210.902 103.582 211.45 103.033C211.998 102.485 211.189 101.728 209.674 100.553C207.651 99.0608 205.216 98.2308 202.702 98.1764C200.21 98.1077 197.76 98.8298 195.704 100.239C194.216 101.31 193.667 102.354 193.954 102.616Z" fill="#263238"/>
<path d="M244.114 117.318C244.049 118.472 244.439 119.605 245.201 120.474C245.963 121.343 247.035 121.879 248.187 121.966C248.75 122.031 249.32 121.981 249.863 121.82C250.407 121.659 250.912 121.39 251.348 121.029C251.785 120.668 252.144 120.223 252.404 119.72C252.664 119.217 252.82 118.666 252.862 118.101C252.912 116.943 252.504 115.812 251.727 114.952C250.951 114.093 249.867 113.573 248.71 113.505C248.157 113.451 247.599 113.507 247.069 113.67C246.538 113.833 246.045 114.099 245.617 114.454C245.19 114.808 244.837 115.244 244.579 115.735C244.321 116.227 244.163 116.765 244.114 117.318Z" fill="#263238"/>
<path d="M240.907 104.835C241.455 105.436 244.876 103.034 249.655 103.19C254.434 103.347 257.88 105.802 258.403 105.253C258.925 104.705 258.142 103.948 256.653 102.799C254.63 101.288 252.18 100.456 249.655 100.422C247.172 100.328 244.725 101.042 242.683 102.459C241.168 103.53 240.646 104.574 240.907 104.835Z" fill="#263238"/>
<path d="M222.548 139.801C220.013 138.943 217.382 138.399 214.714 138.182C213.513 138.026 212.364 137.738 212.103 136.903C212.038 135.637 212.356 134.381 213.017 133.299C214.244 130.401 215.628 127.319 216.881 124.107C222.287 111.051 226.23 100.24 225.682 100.031C225.133 99.8225 220.459 110.268 214.975 123.35C213.67 126.588 212.364 129.67 211.241 132.594C210.437 134.049 210.169 135.74 210.484 137.373C210.643 137.813 210.903 138.21 211.243 138.532C211.583 138.854 211.994 139.092 212.442 139.227C213.113 139.427 213.806 139.541 214.505 139.566C217.166 139.982 219.868 140.061 222.548 139.801Z" fill="#263238"/>
<path d="M219.727 198.607C235.364 199.165 250.841 195.3 264.38 187.457C264.38 187.457 254.353 213.23 219.779 209L219.727 198.607Z" fill="#8B4A28"/>
<path d="M222.939 151.186C224.058 149.64 225.537 148.39 227.247 147.543C228.958 146.697 230.849 146.28 232.757 146.329C234.009 146.375 235.23 146.728 236.314 147.356C237.398 147.984 238.31 148.869 238.972 149.933C239.703 151.158 240.043 152.576 239.948 153.999C239.853 155.423 239.327 156.783 238.439 157.9C237.552 159.017 236.346 159.837 234.981 160.252C233.616 160.666 232.157 160.656 230.799 160.221C228.161 159.283 225.788 157.725 223.879 155.677C223.265 155.17 222.767 154.538 222.417 153.823C222.244 153.436 222.177 153.009 222.223 152.587C222.269 152.165 222.426 151.763 222.678 151.421" fill="#8B4A28"/>
<path d="M236.516 143.509C235.758 143.509 235.602 148.732 231.058 152.179C226.514 155.626 221.005 155.025 220.926 155.73C220.848 156.435 222.127 156.775 224.478 156.905C227.507 157.041 230.489 156.117 232.912 154.294C235.218 152.506 236.743 149.895 237.168 147.008C237.43 144.789 236.881 143.483 236.516 143.509Z" fill="#263238"/>
<path d="M239.362 85.0947C239.78 86.4004 244.584 85.9303 250.173 86.7659C255.761 87.6016 260.252 89.2466 261.036 88.1238C261.375 87.5754 260.618 86.322 258.842 85.0164C256.45 83.3764 253.702 82.3292 250.825 81.9611C247.968 81.5241 245.048 81.7839 242.313 82.7184C240.354 83.4757 239.179 84.468 239.362 85.0947Z" fill="#263238"/>
<path d="M196.098 86.2171C196.908 87.3139 200.224 86.2171 204.193 86.3477C208.163 86.4783 211.479 87.2878 212.288 86.1649C212.654 85.6165 212.158 84.5198 210.722 83.5536C208.8 82.2433 206.519 81.5593 204.193 81.5951C201.863 81.5583 199.58 82.2523 197.665 83.5798C196.229 84.572 195.733 85.6688 196.098 86.2171Z" fill="#263238"/>
<path d="M164.895 80.4719C166.321 75.192 169.544 70.5747 174.008 67.4155C176.698 66.06 179.313 64.5607 181.842 62.9241C186.829 58.8766 188.005 51.8522 191.086 46.2118C193.112 42.5773 195.977 39.4794 199.443 37.1765C202.908 34.8736 206.874 33.4323 211.01 32.9726C217.878 32.2675 224.954 34.3305 231.639 32.6592C236.601 31.4058 240.909 28.1939 245.923 27.2539C255.689 25.3999 264.75 32.4764 271.827 39.3702C271.827 46.3424 266.291 51.0166 260.938 55.508C258.239 57.7414 255.089 59.3645 251.704 60.266C248.319 61.1675 244.779 61.326 241.327 60.7306C236.104 59.7644 230.151 57.0748 225.529 59.895C220.907 62.7152 220.489 70.2096 216.18 73.9437C210.018 79.1663 200.251 74.2832 192.444 76.555C186.412 78.3568 182.651 84.1278 178.63 88.9586C174.609 93.7895 168.629 98.4376 162.597 96.6358C162.737 91.1773 163.508 85.7533 164.895 80.4719Z" fill="#263238"/>
<path d="M238.137 50.9391C242.523 49.6857 251.48 46.8655 253.804 43.1052C259.027 34.8797 267.879 29.2393 277.045 29.7354C281.795 30.1107 286.297 32.0121 289.879 35.1558C293.46 38.2995 295.929 42.5169 296.917 47.1788C302.625 47.3856 308.171 49.1268 312.973 52.2194C317.775 55.312 321.655 59.6416 324.205 64.7528C324.864 66.0733 325.439 67.4338 325.928 68.8264C327.659 71.8816 328.701 75.2785 328.981 78.779C329.261 82.2794 328.771 85.7987 327.547 89.09C326.033 93.0331 323.447 97.4461 325.484 101.154C327.521 104.862 332.796 105.045 336.869 106.377C340.383 107.699 343.319 110.217 345.162 113.488C347.005 116.758 347.638 120.574 346.949 124.264C346.012 126.766 345.577 129.428 345.669 132.098C346.667 134.721 348.289 137.06 350.396 138.913C352.688 141.588 354.232 144.82 354.872 148.283C355.511 151.747 355.224 155.318 354.039 158.634C352.854 161.951 350.813 164.895 348.124 167.169C345.434 169.442 342.191 170.964 338.723 171.581C335.616 172.129 332.247 171.998 329.558 173.67C326.45 175.576 325.119 179.284 322.925 182.182C320.775 184.93 317.841 186.96 314.512 188.005C311.183 189.049 307.615 189.059 304.28 188.032C302.954 187.564 301.69 186.932 300.52 186.152C299.255 187.818 297.587 189.135 295.673 189.98C293.76 190.825 291.663 191.17 289.579 190.983L290.858 117.866C290.46 118.76 289.85 119.543 289.081 120.148C288.312 120.753 287.407 121.162 286.445 121.339C274.721 123.951 272.997 99.8224 275.609 93.2942C271.198 89.6669 267.251 85.5097 263.858 80.9167C260.62 76.138 257.773 63.0816 258.452 57.2062C254.222 57.4412 236.23 51.4614 238.137 50.9391Z" fill="#263238"/>
<path d="M287.646 123.794C288.011 116.351 297.098 114.758 303.522 118.571C307.047 120.608 309.763 124.707 309.424 132.594C308.562 153.614 287.646 148.418 287.646 147.817C287.646 147.217 287.202 132.411 287.646 123.794Z" fill="#9B5D3A"/>
<path d="M294.389 140.036C294.389 140.036 294.755 140.297 295.355 140.61C296.209 141.031 297.195 141.096 298.097 140.793C300.343 140.062 302.354 136.615 302.615 132.828C302.734 131.049 302.458 129.265 301.805 127.606C301.639 126.947 301.314 126.338 300.859 125.833C300.404 125.328 299.832 124.942 299.194 124.707C298.78 124.568 298.329 124.583 297.925 124.751C297.522 124.92 297.193 125.229 297 125.621C296.687 126.196 296.792 126.614 296.687 126.64C296.583 126.666 296.243 126.274 296.452 125.412C296.584 124.893 296.899 124.438 297.34 124.133C297.934 123.721 298.663 123.553 299.377 123.663C300.233 123.873 301.023 124.298 301.671 124.896C302.32 125.494 302.806 126.247 303.085 127.084C303.903 128.947 304.253 130.982 304.103 133.011C303.79 137.241 301.492 141.106 298.384 141.863C297.814 142 297.22 142.008 296.647 141.886C296.073 141.764 295.534 141.515 295.068 141.158C294.415 140.532 294.311 140.062 294.389 140.036Z" fill="#8B4A28"/>
<path d="M267.102 45.2725C268.739 46.111 270.167 47.3068 271.28 48.7716C273.369 51.644 274.152 57.1277 272.846 63.3164L272.716 63.8387H273.238C276.261 64.6557 279.055 66.1568 281.405 68.226C283.755 70.2953 285.598 72.8772 286.791 75.7723C287.435 77.4418 287.796 79.2067 287.861 80.9949C287.817 82.8652 287.598 84.7272 287.208 86.5569C286.795 88.5272 286.533 90.5264 286.425 92.5368C286.265 94.7339 286.844 96.9217 288.07 98.7517C290.814 102.224 294.414 104.923 298.515 106.586C302.095 108.15 305.388 110.304 308.255 112.957C313.005 117.628 315.805 123.928 316.089 130.583C316.266 135.098 315.315 139.585 313.321 143.64C311.937 146.512 310.71 147.896 310.867 147.974C311.023 148.053 311.206 147.687 311.781 147.034C312.552 146.047 313.242 144.999 313.844 143.901C316.636 138.812 317.694 132.95 316.855 127.206C316.016 121.462 313.327 116.147 309.196 112.069C306.24 109.29 302.842 107.022 299.142 105.358C295.294 103.783 291.907 101.258 289.298 98.0205C286.973 94.8086 288.018 90.6567 288.619 86.8964C289.019 84.9715 289.238 83.013 289.271 81.0471C289.179 79.1203 288.764 77.2225 288.044 75.4328C286.757 72.3601 284.769 69.6311 282.239 67.4638C279.709 65.2965 276.707 63.751 273.473 62.9509L273.891 63.6037C275.118 57.1277 274.126 51.4612 271.75 48.4582C270.878 47.3364 269.75 46.4408 268.459 45.8469C268.038 45.5878 267.581 45.3941 267.102 45.2725Z" fill="#455A64"/>
<path d="M302.249 147.897C300.6 146.128 298.549 144.785 296.269 143.98H296.713C296.295 143.861 295.867 143.783 295.434 143.745C294.66 143.523 293.85 143.459 293.051 143.558C292.253 143.657 291.482 143.915 290.786 144.319C288.192 145.243 286.039 147.107 284.754 149.542C283.752 151.713 283.366 154.118 283.637 156.494C283.909 158.871 284.828 161.126 286.294 163.016C287.365 164.712 288.92 166.047 290.759 166.848C292.598 167.649 294.635 167.878 296.606 167.507C298.577 167.135 300.39 166.179 301.811 164.764C303.232 163.348 304.194 161.538 304.573 159.569C305.193 157.584 305.305 155.476 304.899 153.437C304.493 151.397 303.582 149.492 302.249 147.897Z" fill="#455A64"/>
<path d="M341.835 419.653L342.227 331.313L350.452 347.634L401.842 296.557C401.842 296.557 376.983 251.329 365.467 242.582C353.951 233.834 308.985 224.72 306.086 222.997C306.086 222.997 294.44 242.634 258.143 253.523C221.846 264.412 191.398 217.565 191.398 217.565L150.114 219.393C150.114 219.393 146.615 281.385 145.988 323.845C145.779 336.327 146.51 347.216 146.824 354.214C148.208 385.054 179.282 438.063 179.282 438.063C179.282 438.063 223.413 453.73 270.103 448.012C316.793 442.293 341.835 419.653 341.835 419.653Z" fill="#455A64"/>
<path d="M150.107 219.341C128.563 223.806 109.292 250.964 86.2866 304.077L148.958 350.924L150.107 219.341Z" fill="#455A64"/>
<path d="M344.937 277.181C345.196 278.081 345.328 279.012 345.329 279.949C345.486 281.75 345.616 284.336 345.721 287.547C345.93 293.997 345.903 302.876 345.303 312.694C344.702 322.513 343.684 331.313 342.692 337.684C342.195 340.87 341.752 343.429 341.386 345.179C341.269 346.08 341.023 346.959 340.655 347.79C340.75 344.292 341.064 340.804 341.595 337.345C342.3 330.973 343.162 322.173 343.762 312.407C344.363 302.641 344.546 293.788 344.624 287.391C344.513 283.984 344.618 280.574 344.937 277.181Z" fill="#263238"/>
<path d="M152.067 263.341C152.087 264.506 151.982 265.671 151.753 266.814C151.388 269.425 150.918 272.48 150.395 276.162C149.247 283.996 147.784 294.964 146.792 307.054C146.02 317.393 145.828 327.767 146.217 338.128C146.4 341.862 146.557 344.996 146.661 347.555C146.786 348.709 146.786 349.874 146.661 351.028C146.309 349.919 146.099 348.769 146.035 347.607C145.721 345.388 145.408 342.176 145.095 338.18C144.345 327.749 144.345 317.277 145.095 306.845C145.958 296.508 147.361 286.222 149.299 276.032C150.03 272.115 150.657 268.929 151.153 266.762C151.292 265.584 151.6 264.432 152.067 263.341Z" fill="#263238"/>
<path d="M250.412 295.694L252.501 380.039C252.537 382.099 251.759 384.09 250.337 385.581C248.914 387.072 246.962 387.942 244.903 388.004L209.363 388.839C207.381 388.845 205.471 388.098 204.017 386.751C202.563 385.404 201.674 383.556 201.529 381.58L195.784 298.018C195.721 296.983 195.864 295.945 196.204 294.966C196.545 293.986 197.077 293.083 197.77 292.311C198.462 291.538 199.301 290.911 200.238 290.465C201.174 290.02 202.19 289.765 203.226 289.715L242.396 287.965C243.431 287.941 244.461 288.122 245.426 288.498C246.39 288.875 247.271 289.438 248.017 290.157C248.762 290.876 249.358 291.736 249.769 292.686C250.18 293.636 250.399 294.659 250.412 295.694Z" fill="#263238"/>
<path d="M219.469 305.278C219.496 305.929 219.715 306.557 220.099 307.084C220.483 307.61 221.015 308.01 221.627 308.234C222.239 308.458 222.904 308.495 223.537 308.34C224.17 308.186 224.743 307.847 225.183 307.366C225.623 306.886 225.91 306.285 226.009 305.641C226.107 304.997 226.013 304.338 225.736 303.748C225.46 303.158 225.014 302.663 224.457 302.327C223.899 301.99 223.253 301.827 222.603 301.857C221.734 301.898 220.917 302.28 220.33 302.921C219.743 303.562 219.434 304.409 219.469 305.278Z" fill="white"/>
<path d="M197.401 317.395C197.401 317.395 187.766 329.903 184.345 335.413C180.924 340.923 180.271 358.366 180.271 358.366V370.509L161.026 379.048L175.884 420.489L205.078 395.238L234.56 389.702C234.56 389.702 248.165 375.705 250.228 369.438C251.485 365.897 252.044 362.146 251.873 358.392C254.59 351.893 256.978 345.26 259.028 338.52C259.716 333.81 259.952 329.044 259.733 324.289C259.733 324.289 255.946 323.375 252.995 329.668L257.617 319.014C257.617 319.014 254.588 311.18 247.982 319.171C241.375 327.161 230.46 340.844 230.46 340.844L217.952 351.76L216.255 349.958C216.255 349.958 238.268 320.581 237.511 315.515C236.753 310.449 231.922 310.423 227.065 315.985C222.208 321.547 202.571 349.227 199.908 349.618C197.244 350.01 196.278 346.302 196.278 346.302L197.688 336.04L198.655 333.872L197.401 317.395Z" fill="#9B5D3A"/>
<path d="M235.348 358.079C235.69 357.772 235.988 357.421 236.235 357.034C236.784 356.329 237.541 355.311 238.455 354.031C240.283 351.42 242.738 347.868 245.271 343.795C247.804 339.721 249.919 335.961 251.407 333.115C252.138 331.731 252.713 330.503 253.078 329.798C253.302 329.4 253.486 328.98 253.627 328.545C253.32 328.889 253.064 329.276 252.869 329.694L251.015 332.906C249.423 335.517 247.229 339.382 244.722 343.351C242.215 347.32 239.813 351.185 238.09 353.796C237.28 355.023 236.601 356.068 236.027 356.904C235.762 357.272 235.534 357.665 235.348 358.079Z" fill="#8B4A28"/>
<path d="M242.209 371.188C244.353 368.474 246.34 365.64 248.163 362.701C250.141 359.861 251.946 356.905 253.568 353.849C251.425 356.563 249.437 359.396 247.614 362.335C245.63 365.17 243.824 368.127 242.209 371.188Z" fill="#8B4A28"/>
<path d="M95.1721 310.788C95.1721 310.788 62.6093 396.099 61.0948 425.685C59.6847 452.581 82.9774 468.823 100.525 466.264C141.784 460.284 205.133 395.342 205.133 395.342L181.319 370.038L125.672 394.976L142.959 346.537L95.1721 310.788Z" fill="#9B5D3A"/>
<g opacity="0.3">
<path d="M400.955 391.19C407.875 374.321 402.704 353.927 390.51 340.531C378.315 327.135 359.775 320.293 341.574 319.641C326.167 319.101 310.89 322.641 297.29 329.901C283.69 337.161 272.249 347.884 264.124 360.986C255.999 374.088 251.478 389.103 251.02 404.513C250.561 419.923 254.181 435.181 261.512 448.743C270.397 448.208 279.112 446.067 287.233 442.423C298.096 436.835 400.955 391.19 400.955 391.19Z" fill="black"/>
</g>
<path d="M372.103 464.193C405.042 444.557 415.826 401.937 396.191 368.999C376.555 336.06 333.935 325.275 300.996 344.911C268.057 364.546 257.273 407.166 276.908 440.105C296.544 473.044 339.164 483.829 372.103 464.193Z" fill="#0C837E"/>
<path d="M331.567 436.913L295.558 406.727L306.107 394.166L330.236 414.404L367.264 375.052L379.223 386.28L331.567 436.913Z" fill="white"/>
</svg>
