<svg width="90" height="62" viewBox="0 0 90 62" fill="none" xmlns="http://www.w3.org/2000/svg">
<path d="M58.6288 0.639282C58.3955 0.699005 57.7192 0.826595 57.3539 0.88089C57.0994 0.91618 56.4985 1.01934 56.0225 1.10892C53.7391 1.53513 53.0015 1.58127 51.9246 1.36953C51.1871 1.22294 50.7346 1.18222 50.334 1.22022C49.2972 1.3261 48.7316 1.80931 47.577 3.58199C47.4544 3.7693 47.2423 4.08691 47.1057 4.2878C46.969 4.48869 46.7404 4.84431 46.5967 5.07505C46.2479 5.64242 46.024 5.8976 45.6447 6.16092C44.1624 7.18164 42.9748 8.39781 42.011 9.88816C40.6984 11.916 39.8407 14.4162 39.3717 17.5897C39.2657 18.3118 39.261 18.624 39.3482 18.9334C39.4094 19.1533 40.4722 21.7051 40.7833 22.3811C41.8201 24.6343 42.7839 25.9373 44.2049 27.0042C44.9448 27.5607 45.4985 27.7751 46.1984 27.7751C46.5142 27.7778 46.632 27.7616 47.2824 27.6367C48.7434 27.3598 49.7897 27.1942 52.9473 26.7381C54.0926 26.5725 55.0446 26.4422 55.0611 26.4504C55.0799 26.4585 55.0941 26.4884 55.0941 26.5182C55.0941 26.6322 55.219 27.0639 55.3203 27.3028C55.5159 27.7643 55.8269 28.0412 56.2605 28.1389C56.4161 28.1742 56.5551 28.1769 57.0735 28.1633C57.599 28.147 57.7333 28.1525 57.9218 28.1878C58.1905 28.242 58.3531 28.3235 58.4945 28.4728C58.65 28.6384 58.7065 28.8094 58.7183 29.1406C58.7301 29.4745 58.6806 29.7623 58.5109 30.4029C58.3059 31.1685 58.2282 31.649 58.2282 32.162C58.2282 32.7104 58.313 33.1556 58.4992 33.5872C58.6924 34.0324 58.8951 34.3148 59.4512 34.9093C59.9343 35.4223 60.2665 35.9273 60.554 36.5815C60.9758 37.5371 61.2138 38.5524 61.4471 40.3929C61.4754 40.6264 61.4825 40.8055 61.473 41.0987C61.4518 41.7204 61.3576 42.133 61.063 42.904C60.7331 43.7618 60.6129 44.1364 60.4904 44.6685C60.3891 45.1001 60.349 45.4558 60.349 45.9064C60.349 46.9027 60.5705 47.5623 61.2492 48.5912C62.4792 50.4589 62.8751 51.9791 62.5735 53.6676C62.4698 54.2377 62.5169 54.501 62.8633 55.3019C63.0966 55.8367 63.3252 56.2411 63.7989 56.9497C64.6896 58.2799 64.9394 58.9178 64.9559 59.9005C64.9629 60.3457 64.9747 60.381 65.1727 60.6036C65.4036 60.8669 65.7971 61.1438 66.12 61.2741C66.5135 61.4289 67.6776 61.4017 68.5613 61.2117C70.9602 60.6986 73.1917 58.9857 74.5679 56.5995C74.8672 56.081 74.9944 55.8231 75.2513 55.2096C75.4398 54.7617 75.4634 54.7182 75.6377 54.5173C75.8545 54.2676 76.0525 54.1101 76.4201 53.8984C77.0493 53.5373 77.4216 53.1709 77.6101 52.7311C77.7208 52.4705 77.7633 52.2642 77.7633 51.9628C77.7633 51.6479 77.7161 51.3765 77.5912 50.9937C77.3061 50.1033 77.3014 49.5793 77.5724 49.0391C77.7538 48.6781 78.0484 48.412 78.6352 48.0809C78.9274 47.9153 79.1866 47.7415 79.5188 47.4836C79.778 47.2827 80.1079 47.052 80.2493 46.9706C80.5769 46.7805 80.7513 46.6448 80.9492 46.4249C81.3286 46.0068 81.576 45.4205 81.7834 44.4513C81.9059 43.8731 81.9413 43.5066 81.9271 42.9311C81.9036 41.9918 81.7669 41.3593 81.239 39.7278C80.8078 38.3976 80.7112 37.9796 80.7418 37.6049C80.756 37.4013 80.7607 37.3932 80.9916 37.0131C81.0906 36.8475 81.3922 36.3426 81.6632 35.8866C82.7495 34.0514 83.2067 33.3809 83.8712 32.6425C84.1681 32.3141 84.3896 32.1105 85.0353 31.5784C85.4901 31.201 85.7894 30.9051 86.2583 30.3649C86.8639 29.6672 87.2198 29.1786 88.1788 27.729C88.4569 27.3109 88.8316 26.7544 89.013 26.4938C89.1921 26.2332 89.3853 25.94 89.4395 25.8423C89.8708 25.0795 90.0428 24.2053 89.991 23.057C89.9674 22.5087 89.9226 22.096 89.8873 22.096C89.8166 22.096 89.2628 22.2915 88.3556 22.639C87.8112 22.8453 87.2575 23.0489 87.1255 23.0869C86.5552 23.2498 86.0321 23.3041 85.6904 23.2335C85.1956 23.133 84.7455 22.8317 84.2553 22.2725C83.9301 21.9006 83.7251 21.6183 83.1407 20.7278C82.5775 19.8754 82.3112 19.5062 81.8305 18.9226C81.5572 18.5887 81.3828 18.3471 81.1519 17.9725C80.9798 17.6928 80.5321 16.9789 80.1551 16.3817C79.3562 15.1166 79.1394 14.761 78.7695 14.1149C77.537 11.9513 76.9338 10.1705 76.7948 8.28651C76.7594 7.78972 76.7783 6.83959 76.8348 6.32652L76.8772 5.93832L76.816 5.81073L76.7523 5.68586L76.1444 5.69671C75.7296 5.70214 75.388 5.69128 75.0651 5.66142C74.8059 5.63699 74.1744 5.59356 73.663 5.56369C72.2374 5.47954 71.6317 5.40624 70.9531 5.23793C70.6161 5.15378 70.5572 5.13478 69.9374 4.9176C69.3625 4.714 69.0797 4.65699 68.6673 4.65428C68.2691 4.65428 68.1253 4.68957 67.8213 4.8606C67.4632 5.06419 67.1545 5.47411 66.8905 6.09848L66.7751 6.37267L66.6243 6.44868L66.4734 6.52197L63.648 5.12663L60.8203 3.73401V3.53312C60.8203 3.42182 60.8368 3.04991 60.858 2.70243C60.9098 1.84731 60.8792 1.43468 60.7472 1.13607C60.6341 0.875462 60.3325 0.7533 59.6067 0.663715C59.3169 0.628426 58.7254 0.612137 58.6288 0.639282Z" fill="#0FB1AA"/>
<path d="M0 38.7913V48.4827H1.66131H3.32261V44.5274V40.5748L8.3843 40.5938C12.7296 40.6101 13.479 40.6183 13.6863 40.6536C14.3085 40.7594 14.7633 41.0146 15.0201 41.4082C15.1968 41.677 15.2699 41.9539 15.2699 42.3611C15.2699 43.2868 14.7868 43.8406 13.7712 44.0768C13.5756 44.1202 13.2716 44.1256 9.23263 44.1311L4.90145 44.1419V46.3109V48.4827H9.37402C12.1876 48.4827 14.0068 48.4718 14.2802 48.4555C15.8637 48.3524 17.1574 47.9234 18.1118 47.1851C19.3913 46.1942 20.0087 44.7446 19.9522 42.8633C19.8862 40.7051 18.9601 39.3369 16.9925 38.4818L16.6649 38.3407L16.8676 38.2239C17.9704 37.5996 18.6821 36.72 19.0143 35.569C19.1628 35.0532 19.1934 34.7844 19.1934 33.9999C19.1934 33.3674 19.1863 33.2642 19.1392 33.009C18.9695 32.1105 18.6137 31.3667 18.0694 30.7694C17.1881 29.803 15.998 29.2737 14.3768 29.1271C14.1647 29.1108 11.7069 29.0999 7.02933 29.0999H0V38.7913ZM13.0972 33.4868C13.9408 33.6307 14.4216 34.0569 14.5535 34.7763C14.5959 35.0016 14.5865 35.341 14.53 35.5771C14.3862 36.1934 13.9196 36.5843 13.1373 36.7417C12.8545 36.8014 13.1467 36.7987 7.5831 36.7879L3.32261 36.7824V35.1129V33.4434H8.08503C12.2819 33.4434 12.8781 33.4488 13.0972 33.4868Z" fill="#0C837E"/>
<path d="M51.557 29.3577C50.9302 29.4527 50.744 29.4907 50.5555 29.5613C49.1676 30.0906 47.9139 31.019 46.9808 32.2081C45.8709 33.6224 45.1781 35.3598 44.9495 37.2953C44.8599 38.0636 44.8599 39.163 44.9495 39.9747C45.4915 44.8394 48.9885 48.1567 53.5741 48.1567C54.9621 48.1567 56.3501 47.8554 57.6273 47.2745C57.9854 47.1143 58.0019 47.1007 58.0373 46.9596C58.0844 46.7777 58.2753 46.2348 58.452 45.7814C58.8809 44.6792 58.9587 44.0169 58.7961 42.836C58.5486 41.0362 58.2612 39.9557 57.7828 39.03C57.5212 38.5251 57.3539 38.2916 56.7813 37.6455L56.237 37.0266H54.6888H53.1382V38.9133V40.8H54.7052H56.2723L56.2676 41.9049L56.2605 43.007L56.0602 43.14C55.2213 43.6938 53.9041 43.8947 52.7942 43.6368C51.4863 43.3328 50.4236 42.3826 49.8721 41.028C49.5752 40.2978 49.4385 39.5512 49.4385 38.6608C49.4385 37.7161 49.5752 37.032 49.9216 36.2258C50.1337 35.7344 50.3364 35.4005 50.6521 35.0232C51.2436 34.3092 51.9293 33.8776 52.7659 33.6821C52.9945 33.6305 53.1052 33.6197 53.5388 33.6197C53.8263 33.6197 54.1373 33.636 54.2575 33.655C54.6982 33.7283 55.1789 33.8749 55.5819 34.0622L55.702 34.1192L55.7562 33.8694C55.7845 33.731 55.8599 33.4324 55.9212 33.2071C56.0791 32.6234 56.1168 32.4008 56.1168 32.0316C56.1168 31.6353 56.0673 31.4724 55.8929 31.2851C55.6148 30.9837 55.3674 30.9403 54.1397 30.9702C53.8192 30.9756 53.7344 30.9702 53.5812 30.924C53.0157 30.7503 52.6975 30.3214 52.5208 29.4825C52.469 29.2382 52.469 29.2355 52.3959 29.2382C52.3582 29.2409 51.9788 29.2952 51.557 29.3577Z" fill="white"/>
<path d="M21.6089 38.5877V47.7769H23.8357H26.0626V45.0079V42.2389H27.017H27.9737L29.569 45.0079L31.1644 47.7769H33.7282C35.1374 47.7769 36.2897 47.7714 36.2897 47.7633C36.2897 47.7551 35.4413 46.3191 34.4021 44.5735C33.3629 42.8253 32.517 41.3892 32.5217 41.3865C32.5264 41.3811 32.6536 41.3105 32.8021 41.2264C34.289 40.4011 35.2646 39.0546 35.6181 37.339C35.7123 36.8802 35.75 36.5218 35.7642 35.9246C35.8113 33.9185 35.3282 32.4417 34.2372 31.2608C33.2098 30.1451 31.7653 29.5478 29.8094 29.4284C29.5266 29.4094 27.8582 29.3985 25.4806 29.3985H21.6089V38.5877ZM29.7882 33.9375C30.7072 34.1981 31.195 34.779 31.2963 35.7264C31.4118 36.8232 30.9405 37.6783 30.0332 38.0285C29.5855 38.2022 29.5832 38.2022 27.7428 38.2131L26.0626 38.2239V36.0359V33.8479L27.8017 33.8587L29.5384 33.8669L29.7882 33.9375Z" fill="white"/>
<path d="M38.0806 38.5877V47.7769H40.3074H42.5343V38.5877V29.3985H40.3074H38.0806V38.5877Z" fill="white"/>
</svg>
