<svg width="90" height="61" viewBox="0 0 90 61" fill="none" xmlns="http://www.w3.org/2000/svg">
<path d="M58.6288 0.0129395C58.3955 0.0726624 57.7192 0.200253 57.3539 0.254547C57.0994 0.289837 56.4985 0.392994 56.0225 0.482578C53.7391 0.908783 53.0015 0.954929 51.9246 0.743187C51.1871 0.596596 50.7346 0.555874 50.334 0.59388C49.2972 0.699753 48.7316 1.18296 47.577 2.95564C47.4544 3.14296 47.2423 3.46057 47.1057 3.66146C46.969 3.86234 46.7404 4.21796 46.5967 4.44871C46.2479 5.01608 46.024 5.27126 45.6447 5.53458C44.1624 6.55529 42.9748 7.77147 42.011 9.26182C40.6984 11.2897 39.8407 13.7899 39.3717 16.9633C39.2657 17.6854 39.261 17.9976 39.3482 18.3071C39.4094 18.527 40.4722 21.0788 40.7833 21.7547C41.8201 24.0079 42.7839 25.3109 44.2049 26.3778C44.9448 26.9343 45.4985 27.1488 46.1984 27.1488C46.5142 27.1515 46.632 27.1352 47.2824 27.0103C48.7434 26.7334 49.7897 26.5678 52.9473 26.1118C54.0926 25.9462 55.0446 25.8159 55.0611 25.824C55.0799 25.8322 55.0941 25.862 55.0941 25.8919C55.0941 26.0059 55.219 26.4375 55.3203 26.6764C55.5159 27.1379 55.8269 27.4148 56.2605 27.5125C56.4161 27.5478 56.5551 27.5506 57.0735 27.537C57.599 27.5207 57.7333 27.5261 57.9218 27.5614C58.1905 27.6157 58.3531 27.6971 58.4945 27.8465C58.65 28.012 58.7065 28.1831 58.7183 28.5143C58.7301 28.8482 58.6806 29.1359 58.5109 29.7766C58.3059 30.5421 58.2282 31.0226 58.2282 31.5357C58.2282 32.084 58.313 32.5293 58.4992 32.9609C58.6924 33.4061 58.8951 33.6884 59.4512 34.2829C59.9343 34.796 60.2665 35.3009 60.554 35.9552C60.9758 36.9107 61.2138 37.926 61.4471 39.7666C61.4754 40 61.4825 40.1792 61.473 40.4724C61.4518 41.094 61.3576 41.5067 61.063 42.2776C60.7331 43.1355 60.6129 43.5101 60.4904 44.0422C60.3891 44.4738 60.349 44.8294 60.349 45.2801C60.349 46.2763 60.5705 46.936 61.2492 47.9649C62.4792 49.8326 62.8751 51.3528 62.5735 53.0413C62.4698 53.6114 62.5169 53.8747 62.8633 54.6755C63.0966 55.2103 63.3252 55.6148 63.7989 56.3233C64.6896 57.6535 64.9394 58.2915 64.9559 59.2742C64.9629 59.7194 64.9747 59.7547 65.1727 59.9773C65.4036 60.2406 65.7971 60.5175 66.12 60.6478C66.5135 60.8025 67.6776 60.7754 68.5613 60.5854C70.9602 60.0723 73.1917 58.3593 74.5679 55.9731C74.8672 55.4546 74.9944 55.1967 75.2513 54.5832C75.4398 54.1353 75.4634 54.0919 75.6377 53.891C75.8545 53.6412 76.0525 53.4838 76.4201 53.272C77.0493 52.911 77.4216 52.5445 77.6101 52.1047C77.7208 51.8441 77.7633 51.6378 77.7633 51.3365C77.7633 51.0216 77.7161 50.7501 77.5912 50.3673C77.3061 49.4769 77.3014 48.953 77.5724 48.4128C77.7538 48.0517 78.0484 47.7857 78.6352 47.4545C78.9274 47.2889 79.1866 47.1152 79.5188 46.8573C79.778 46.6564 80.1079 46.4256 80.2493 46.3442C80.5769 46.1542 80.7513 46.0184 80.9492 45.7986C81.3286 45.3805 81.576 44.7941 81.7834 43.825C81.9059 43.2468 81.9413 42.8803 81.9271 42.3048C81.9036 41.3655 81.7669 40.733 81.239 39.1015C80.8078 37.7713 80.7112 37.3532 80.7418 36.9786C80.756 36.775 80.7607 36.7669 80.9916 36.3868C81.0906 36.2212 81.3922 35.7163 81.6632 35.2602C82.7495 33.4251 83.2067 32.7546 83.8712 32.0162C84.1681 31.6877 84.3896 31.4841 85.0353 30.952C85.4901 30.5747 85.7894 30.2788 86.2583 29.7386C86.8639 29.0409 87.2198 28.5523 88.1788 27.1026C88.4569 26.6846 88.8316 26.1281 89.013 25.8675C89.1921 25.6068 89.3853 25.3137 89.4395 25.2159C89.8708 24.4531 90.0428 23.579 89.991 22.4307C89.9674 21.8823 89.9226 21.4697 89.8873 21.4697C89.8166 21.4697 89.2628 21.6651 88.3556 22.0126C87.8112 22.2189 87.2575 22.4225 87.1255 22.4605C86.5552 22.6234 86.0321 22.6777 85.6904 22.6071C85.1956 22.5067 84.7455 22.2054 84.2553 21.6461C83.9301 21.2742 83.7251 20.9919 83.1407 20.1015C82.5775 19.2491 82.3112 18.8799 81.8305 18.2962C81.5572 17.9623 81.3828 17.7207 81.1519 17.3461C80.9798 17.0665 80.5321 16.3525 80.1551 15.7553C79.3562 14.4903 79.1394 14.1347 78.7695 13.4886C77.537 11.325 76.9338 9.54415 76.7948 7.66016C76.7594 7.16338 76.7783 6.21325 76.8348 5.70017L76.8772 5.31198L76.816 5.18439L76.7523 5.05951L76.1444 5.07037C75.7296 5.0758 75.388 5.06494 75.0651 5.03508C74.8059 5.01065 74.1744 4.96721 73.663 4.93735C72.2374 4.8532 71.6317 4.7799 70.9531 4.61159C70.6161 4.52744 70.5572 4.50843 69.9374 4.29126C69.3625 4.08766 69.0797 4.03065 68.6673 4.02794C68.2691 4.02794 68.1253 4.06323 67.8213 4.23425C67.4632 4.43785 67.1545 4.84777 66.8905 5.47214L66.7751 5.74632L66.6243 5.82233L66.4734 5.89563L63.648 4.50029L60.8203 3.10767V2.90678C60.8203 2.79548 60.8368 2.42357 60.858 2.07609C60.9098 1.22097 60.8792 0.808338 60.7472 0.509724C60.6341 0.249119 60.3325 0.126957 59.6067 0.0373726C59.3169 0.00208282 58.7254 -0.0142059 58.6288 0.0129395Z" fill="#0FB1AA"/>
<path d="M0 38.1641V47.8555H1.66131H3.32261V43.9002V39.9476L8.3843 39.9666C12.7296 39.9829 13.479 39.9911 13.6863 40.0264C14.3085 40.1322 14.7633 40.3874 15.0201 40.781C15.1968 41.0498 15.2699 41.3267 15.2699 41.7339C15.2699 42.6596 14.7868 43.2134 13.7712 43.4496C13.5756 43.493 13.2716 43.4984 9.23263 43.5039L4.90145 43.5147V45.6837V47.8555H9.37402C12.1876 47.8555 14.0068 47.8446 14.2802 47.8283C15.8637 47.7252 17.1574 47.2962 18.1118 46.5579C19.3913 45.567 20.0087 44.1174 19.9522 42.2361C19.8862 40.0779 18.9601 38.7097 16.9925 37.8546L16.6649 37.7135L16.8676 37.5967C17.9704 36.9724 18.6821 36.0928 19.0143 34.9418C19.1628 34.426 19.1934 34.1572 19.1934 33.3727C19.1934 32.7402 19.1863 32.637 19.1392 32.3819C18.9695 31.4833 18.6137 30.7395 18.0694 30.1423C17.1881 29.1758 15.998 28.6465 14.3768 28.4999C14.1647 28.4836 11.7069 28.4727 7.02933 28.4727H0V38.1641ZM13.0972 32.8596C13.9408 33.0035 14.4216 33.4297 14.5535 34.1491C14.5959 34.3744 14.5865 34.7138 14.53 34.9499C14.3862 35.5662 13.9196 35.9571 13.1373 36.1145C12.8545 36.1742 13.1467 36.1715 7.5831 36.1607L3.32261 36.1552V34.4857V32.8162H8.08503C12.2819 32.8162 12.8781 32.8216 13.0972 32.8596Z" fill="#0C837E"/>
<path d="M51.5575 28.7322C50.9307 28.8272 50.7445 28.8652 50.556 28.9358C49.168 29.4651 47.9144 30.3935 46.9812 31.5826C45.8713 32.9969 45.1785 34.7343 44.95 36.6699C44.8604 37.4381 44.8604 38.5375 44.95 39.3492C45.492 44.2139 48.989 47.5312 53.5746 47.5312C54.9626 47.5312 56.3505 47.2299 57.6278 46.649C57.9859 46.4888 58.0024 46.4752 58.0378 46.3341C58.0849 46.1522 58.2758 45.6093 58.4525 45.1559C58.8814 44.0538 58.9592 43.3914 58.7966 42.2105C58.5491 40.4107 58.2616 39.3302 57.7833 38.4045C57.5217 37.8996 57.3544 37.6661 56.7818 37.02L56.2374 36.4011H54.6892H53.1387V38.2878V40.1745H54.7057H56.2728L56.2681 41.2794L56.261 42.3815L56.0607 42.5145C55.2218 43.0683 53.9045 43.2692 52.7946 43.0113C51.4868 42.7073 50.424 41.7571 49.8726 40.4025C49.5757 39.6723 49.439 38.9257 49.439 38.0353C49.439 37.0906 49.5757 36.4065 49.9221 35.6003C50.1342 35.1089 50.3369 34.775 50.6526 34.3977C51.2441 33.6837 51.9298 33.2521 52.7664 33.0566C52.9949 33.0051 53.1057 32.9942 53.5393 32.9942C53.8268 32.9942 54.1378 33.0105 54.258 33.0295C54.6987 33.1028 55.1794 33.2494 55.5823 33.4367L55.7025 33.4937L55.7567 33.2439C55.785 33.1055 55.8604 32.8069 55.9217 32.5816C56.0796 31.9979 56.1173 31.7753 56.1173 31.4061C56.1173 31.0098 56.0678 30.8469 55.8934 30.6596C55.6153 30.3582 55.3679 30.3148 54.1402 30.3447C53.8197 30.3501 53.7349 30.3447 53.5817 30.2985C53.0162 30.1248 52.698 29.6959 52.5213 28.857C52.4695 28.6127 52.4695 28.61 52.3964 28.6127C52.3587 28.6154 51.9793 28.6697 51.5575 28.7322Z" fill="#00180A"/>
<path d="M21.6084 37.9612V47.1504H23.8353H26.0621V44.3814V41.6125H27.0165H27.9732L29.5685 44.3814L31.1639 47.1504H33.7277C35.1369 47.1504 36.2892 47.145 36.2892 47.1368C36.2892 47.1287 35.4408 45.6926 34.4016 43.9471C33.3624 42.1988 32.5165 40.7628 32.5212 40.7601C32.5259 40.7546 32.6532 40.684 32.8016 40.5999C34.2885 39.7746 35.2641 38.4282 35.6176 36.7125C35.7118 36.2537 35.7495 35.8954 35.7637 35.2981C35.8108 33.292 35.3277 31.8152 34.2367 30.6343C33.2093 29.5186 31.7648 28.9214 29.8089 28.8019C29.5261 28.7829 27.8577 28.7721 25.4801 28.7721H21.6084V37.9612ZM29.7877 33.311C30.7067 33.5716 31.1945 34.1526 31.2958 35.1C31.4113 36.1967 30.94 37.0518 30.0328 37.402C29.585 37.5758 29.5827 37.5758 27.7423 37.5866L26.0621 37.5975V35.4094V33.2214L27.8012 33.2323L29.5379 33.2404L29.7877 33.311Z" fill="#00180A"/>
<path d="M38.0801 37.9612V47.1504H40.3069H42.5338V37.9612V28.7721H40.3069H38.0801V37.9612Z" fill="#00180A"/>
</svg>
