<svg width="93" height="27" viewBox="0 0 93 27" fill="none" xmlns="http://www.w3.org/2000/svg">
<path d="M7.54102 26.3516C6.26367 26.3516 5.08594 26.0234 4.00781 25.3672C2.94141 24.7109 2.08594 23.8379 1.44141 22.748C0.808594 21.6465 0.492188 20.4395 0.492188 19.127V17.4746C0.492188 17.3457 0.550781 17.2812 0.667969 17.2812H4.71094C4.80469 17.2812 4.85156 17.3457 4.85156 17.4746V19.127C4.85156 19.9121 5.11523 20.5918 5.64258 21.166C6.16992 21.7285 6.80273 22.0098 7.54102 22.0098C8.29102 22.0098 8.92969 21.7227 9.45703 21.1484C9.98438 20.5625 10.248 19.8887 10.248 19.127C10.248 18.248 9.67383 17.4805 8.52539 16.8242C8.33789 16.707 8.0918 16.5664 7.78711 16.4023C7.49414 16.2266 7.14258 16.0273 6.73242 15.8047C6.32227 15.582 5.92383 15.3652 5.53711 15.1543C5.15039 14.9316 4.77539 14.7207 4.41211 14.5215C3.09961 13.748 2.12109 12.7812 1.47656 11.6211C0.84375 10.4492 0.527344 9.13672 0.527344 7.68359C0.527344 6.34766 0.855469 5.14062 1.51172 4.0625C2.16797 2.99609 3.02344 2.15234 4.07812 1.53125C5.14453 0.898438 6.29883 0.582031 7.54102 0.582031C8.81836 0.582031 9.99023 0.898438 11.0566 1.53125C12.123 2.17578 12.9727 3.03125 13.6055 4.09766C14.25 5.16406 14.5723 6.35938 14.5723 7.68359V10.6367C14.5723 10.7305 14.5254 10.7773 14.4316 10.7773H10.3887C10.2949 10.7773 10.248 10.7305 10.248 10.6367L10.2129 7.68359C10.2129 6.83984 9.94922 6.1543 9.42188 5.62695C8.89453 5.09961 8.26758 4.83594 7.54102 4.83594C6.80273 4.83594 6.16992 5.11719 5.64258 5.67969C5.11523 6.24219 4.85156 6.91016 4.85156 7.68359C4.85156 8.46875 5.01562 9.125 5.34375 9.65234C5.68359 10.1797 6.29883 10.6836 7.18945 11.1641C7.2832 11.2109 7.5 11.3281 7.83984 11.5156C8.17969 11.7031 8.55469 11.9141 8.96484 12.1484C9.38672 12.3711 9.76758 12.5762 10.1074 12.7637C10.4473 12.9395 10.6523 13.0449 10.7227 13.0801C11.918 13.748 12.8613 14.5684 13.5527 15.541C14.2559 16.5137 14.6074 17.709 14.6074 19.127C14.6074 20.498 14.291 21.7285 13.6582 22.8184C13.0137 23.9082 12.1582 24.7695 11.0918 25.4023C10.0254 26.0352 8.8418 26.3516 7.54102 26.3516ZM23.7305 26.3516C22.4297 26.3516 21.2402 26.0234 20.1621 25.3672C19.0957 24.7109 18.2461 23.832 17.6133 22.7305C16.9922 21.6172 16.6816 20.3809 16.6816 19.0215L16.7168 7.78906C16.7168 6.45312 17.0215 5.24609 17.6309 4.16797C18.2402 3.07812 19.0781 2.20508 20.1445 1.54883C21.2227 0.880859 22.418 0.546875 23.7305 0.546875C25.0664 0.546875 26.2559 0.869141 27.2988 1.51367C28.3535 2.1582 29.1914 3.03125 29.8125 4.13281C30.4453 5.22266 30.7617 6.44141 30.7617 7.78906V9.44141C30.7617 9.53516 30.7148 9.58203 30.6211 9.58203H26.5781C26.4844 9.58203 26.4375 9.53516 26.4375 9.44141V7.78906C26.4375 6.99219 26.1797 6.30664 25.6641 5.73242C25.1484 5.1582 24.5039 4.87109 23.7305 4.87109C22.875 4.87109 22.2188 5.16406 21.7617 5.75C21.3047 6.33594 21.0762 7.01562 21.0762 7.78906V19.0215C21.0762 19.9004 21.334 20.6211 21.8496 21.1836C22.3652 21.7344 22.9922 22.0098 23.7305 22.0098C24.5039 22.0098 25.1484 21.7051 25.6641 21.0957C26.1797 20.4746 26.4375 19.7832 26.4375 19.0215V17.3516C26.4375 17.2578 26.4844 17.2109 26.5781 17.2109H30.6562C30.75 17.2109 30.7969 17.2578 30.7969 17.3516V19.0215C30.7969 20.3691 30.4805 21.5996 29.8477 22.7129C29.2031 23.8145 28.3535 24.6992 27.2988 25.3672C26.2441 26.0234 25.0547 26.3516 23.7305 26.3516ZM45.1934 26H33.5566C33.4629 26 33.416 25.9414 33.416 25.8242L33.4512 1.0918C33.4512 0.998047 33.498 0.951172 33.5918 0.951172H45.1582C45.252 0.951172 45.2988 1.00977 45.2988 1.12695V5.15234C45.2988 5.24609 45.252 5.29297 45.1582 5.29297H37.7754V10.918H45.1582C45.252 10.918 45.2988 10.9648 45.2988 11.0586L45.334 15.1367C45.334 15.2305 45.2871 15.2773 45.1934 15.2773H37.7754V21.5703H45.1934C45.2871 21.5703 45.334 21.6289 45.334 21.7461V25.8594C45.334 25.9531 45.2871 26 45.1934 26ZM52.752 26H48.709C48.5918 26 48.5332 25.9414 48.5332 25.8242L48.6035 1.0918C48.6035 0.998047 48.6504 0.951172 48.7441 0.951172H55.6699C57.873 0.951172 59.6133 1.625 60.8906 2.97266C62.1797 4.30859 62.8242 6.13086 62.8242 8.43945C62.8242 10.127 62.4902 11.5977 61.8223 12.8516C61.1426 14.0938 60.2637 15.0547 59.1855 15.7344C58.1074 16.4141 56.9355 16.7539 55.6699 16.7539H52.9277V25.8242C52.9277 25.9414 52.8691 26 52.752 26ZM55.6699 5.22266L52.9277 5.25781V12.3945H55.6699C56.4316 12.3945 57.0938 12.0312 57.6562 11.3047C58.2188 10.5664 58.5 9.61133 58.5 8.43945C58.5 7.50195 58.248 6.73438 57.7441 6.13672C57.2402 5.52734 56.5488 5.22266 55.6699 5.22266ZM72.9492 26H68.8887C68.7832 26 68.7305 25.9414 68.7305 25.8242V5.29297H64.0547C63.9375 5.29297 63.8789 5.23438 63.8789 5.11719L63.9141 1.0918C63.9141 0.998047 63.9609 0.951172 64.0547 0.951172H77.7305C77.8594 0.951172 77.9238 0.998047 77.9238 1.0918V5.11719C77.9238 5.23438 77.877 5.29297 77.7832 5.29297H73.0547L73.0898 25.8242C73.0898 25.9414 73.043 26 72.9492 26ZM78.4688 25.8242L82.9336 1.0918C82.957 0.998047 83.0156 0.951172 83.1094 0.951172H88.3301C88.4238 0.951172 88.4824 0.998047 88.5059 1.0918L92.7949 25.8242C92.8066 25.9414 92.7598 26 92.6543 26H88.6641C88.5469 26 88.4824 25.9414 88.4707 25.8242L88.084 23.1875H83.1797L82.793 25.8242C82.7812 25.9414 82.7227 26 82.6172 26H78.6094C78.5156 26 78.4688 25.9414 78.4688 25.8242ZM85.8867 9.23047L85.6758 7.89453L85.5176 9.23047L83.9004 19.3379H87.3633L85.8867 9.23047Z" fill="#096DD9"/>
</svg>
